<?xml version="1.0" encoding="iso-8859-1"?>
<!-- Generator: Adobe Illustrator 16.0.0, SVG Export Plug-In . SVG Version: 6.00 Build 0)  -->
<!DOCTYPE svg PUBLIC "-//W3C//DTD SVG 1.1//EN" "http://www.w3.org/Graphics/SVG/1.1/DTD/svg11.dtd">
<svg xmlns="http://www.w3.org/2000/svg" xmlns:xlink="http://www.w3.org/1999/xlink" version="1.1" id="Capa_1" x="0px" y="0px" width="512px" height="512px" viewBox="0 0 48.497 48.498" style="enable-background:new 0 0 48.497 48.498;" xml:space="preserve">
<g>
	<g>
		<path d="M30.805,2.785c-0.695-0.352-1.533-0.286-2.162,0.178l-14.92,10.923H4.255c-1.117,0-2.172,0.417-2.976,1.18    C0.454,15.853,0,16.906,0,18.031v12.438c0,1.125,0.454,2.177,1.282,2.968c0.8,0.76,1.856,1.176,2.972,1.176h9.467l14.921,10.925    c0.361,0.267,0.793,0.399,1.226,0.399c0.319,0,0.641-0.074,0.938-0.225c0.693-0.354,1.135-1.066,1.135-1.85V4.633    C31.939,3.852,31.5,3.138,30.805,2.785z M27.795,39.778l-12.171-8.909c-0.355-0.262-0.785-0.398-1.225-0.398H4.145v-6.219    l0.109-6.219v-0.002h10.145c0.44,0,0.87-0.138,1.225-0.4l12.171-8.909V39.778z" fill="#FFFFFF"/>
		<rect x="36.061" y="13.885" width="4.146" height="20.727" fill="#FFFFFF"/>
		<rect x="44.352" y="9.741" width="4.146" height="29.018" fill="#FFFFFF"/>
	</g>
</g>
<g>
</g>
<g>
</g>
<g>
</g>
<g>
</g>
<g>
</g>
<g>
</g>
<g>
</g>
<g>
</g>
<g>
</g>
<g>
</g>
<g>
</g>
<g>
</g>
<g>
</g>
<g>
</g>
<g>
</g>
</svg>
