<svg xmlns="http://www.w3.org/2000/svg" viewBox="0 0 541 594"><defs><style>.cls-1{fill:#bd8864;}.cls-2{fill:#efd7b8;}.cls-3{fill:#3b4d57;}.cls-4{fill:#59717c;}.cls-5{fill:#fc6460;}.cls-6{fill:#fcbf60;}.cls-7{fill:#fc8b60;}.cls-8{fill:#f7f6f2;}.cls-9{fill:#774f33;}.cls-10{fill:#9dbf9f;}</style></defs><title>peaople</title><g id="Слой_2" data-name="Слой 2"><g id="OBJECTS"><g id="_Группа_" data-name="&lt;Группа&gt;"><g id="_Группа_2" data-name="&lt;Группа&gt;"><g id="_Группа_3" data-name="&lt;Группа&gt;"><polygon id="_Контур_" data-name="&lt;Контур&gt;" class="cls-1" points="238.8 345.6 238.8 410.4 228 410.4 228 399.6 228 345.6 238.8 345.6"/><rect id="_Контур_2" data-name="&lt;Контур&gt;" class="cls-2" x="217.2" y="496.8" width="10.8" height="10.8"/><rect id="_Контур_3" data-name="&lt;Контур&gt;" class="cls-3" x="217.2" y="421.2" width="10.8" height="75.6"/><polygon id="_Контур_4" data-name="&lt;Контур&gt;" class="cls-1" points="228 345.6 228 399.6 217.2 399.6 217.2 345.6 217.2 334.8 228 334.8 228 345.6"/><rect id="_Контур_5" data-name="&lt;Контур&gt;" class="cls-3" x="195.6" y="583.2" width="21.6" height="10.8"/><rect id="_Контур_6" data-name="&lt;Контур&gt;" class="cls-2" x="195.6" y="529.2" width="21.6" height="54"/><polygon id="_Контур_7" data-name="&lt;Контур&gt;" class="cls-4" points="217.2 507.6 217.2 529.2 195.6 529.2 184.8 529.2 163.2 529.2 163.2 507.6 163.2 496.8 217.2 496.8 217.2 507.6"/><polygon id="_Контур_8" data-name="&lt;Контур&gt;" class="cls-3" points="217.2 421.2 217.2 496.8 163.2 496.8 163.2 421.2 163.2 410.4 179.26 410.4 179.26 421.2 200.86 421.2 200.86 410.4 217.2 410.4 217.2 421.2"/><path id="_Составной_контур_" data-name="&lt;Составной контур&gt;" class="cls-2" d="M217.2,345.6v54h-54v-54H174V334.8h32.4v10.8Zm-10.8,21.6V356.4H195.6v10.8Zm-10.8,21.6V378H184.8v10.8Zm-10.8-21.6V356.4H174v10.8Z"/><rect id="_Контур_9" data-name="&lt;Контур&gt;" class="cls-1" x="206.4" y="334.8" width="10.8" height="10.8"/><polygon id="_Контур_10" data-name="&lt;Контур&gt;" class="cls-1" points="217.2 324 217.2 334.8 206.4 334.8 174 334.8 163.2 334.8 163.2 324 174 324 217.2 324"/><rect id="_Контур_11" data-name="&lt;Контур&gt;" class="cls-1" x="174" y="313.2" width="43.2" height="10.8"/><rect id="_Контур_12" data-name="&lt;Контур&gt;" class="cls-3" x="195.6" y="356.4" width="10.8" height="10.8"/><rect id="_Контур_13" data-name="&lt;Контур&gt;" class="cls-2" x="179.26" y="410.4" width="21.6" height="10.8"/><rect id="_Контур_14" data-name="&lt;Контур&gt;" class="cls-2" x="179.26" y="399.6" width="21.6" height="10.8"/><rect id="_Контур_15" data-name="&lt;Контур&gt;" class="cls-5" x="184.8" y="378" width="10.8" height="10.8"/><rect id="_Контур_16" data-name="&lt;Контур&gt;" class="cls-3" x="163.2" y="583.2" width="21.6" height="10.8"/><rect id="_Контур_17" data-name="&lt;Контур&gt;" class="cls-2" x="163.2" y="529.2" width="21.6" height="54"/><rect id="_Контур_18" data-name="&lt;Контур&gt;" class="cls-3" x="174" y="356.4" width="10.8" height="10.8"/><rect id="_Контур_19" data-name="&lt;Контур&gt;" class="cls-1" x="163.2" y="334.8" width="10.8" height="10.8"/><rect id="_Контур_20" data-name="&lt;Контур&gt;" class="cls-2" x="152.4" y="496.8" width="10.8" height="10.8"/><rect id="_Контур_21" data-name="&lt;Контур&gt;" class="cls-3" x="152.4" y="421.2" width="10.8" height="75.6"/><polygon id="_Контур_22" data-name="&lt;Контур&gt;" class="cls-1" points="163.2 345.6 163.2 399.6 152.4 399.6 152.4 345.6 152.4 334.8 163.2 334.8 163.2 345.6"/><polygon id="_Контур_23" data-name="&lt;Контур&gt;" class="cls-1" points="152.4 399.6 152.4 410.4 141.6 410.4 141.6 345.6 152.4 345.6 152.4 399.6"/></g></g><g id="_Группа_4" data-name="&lt;Группа&gt;"><rect id="_Контур_24" data-name="&lt;Контур&gt;" class="cls-3" x="530.2" y="32.4" width="10.8" height="54"/><rect id="_Контур_25" data-name="&lt;Контур&gt;" class="cls-2" x="519.4" y="183.6" width="10.8" height="10.8"/><rect id="_Контур_26" data-name="&lt;Контур&gt;" class="cls-6" x="519.4" y="108" width="10.8" height="75.6"/><polygon id="_Контур_27" data-name="&lt;Контур&gt;" class="cls-3" points="530.2 32.4 530.2 86.4 519.4 86.4 519.4 32.4 519.4 21.6 530.2 21.6 530.2 32.4"/><rect id="_Контур_28" data-name="&lt;Контур&gt;" class="cls-3" x="497.8" y="270" width="21.6" height="10.8"/><rect id="_Контур_29" data-name="&lt;Контур&gt;" class="cls-2" x="497.8" y="216" width="21.6" height="54"/><polygon id="_Контур_30" data-name="&lt;Контур&gt;" class="cls-1" points="519.4 194.4 519.4 216 497.8 216 487 216 465.4 216 465.4 194.4 465.4 183.6 519.4 183.6 519.4 194.4"/><polygon id="_Контур_31" data-name="&lt;Контур&gt;" class="cls-6" points="519.4 108 519.4 183.6 465.4 183.6 465.4 108 465.4 97.2 481.46 97.2 481.46 108 503.06 108 503.06 97.2 519.4 97.2 519.4 108"/><path id="_Составной_контур_2" data-name="&lt;Составной контур&gt;" class="cls-2" d="M519.4,32.4v54h-54v-54h10.8V21.6h32.4V32.4ZM508.6,54V43.2H497.8V54ZM497.8,75.6V64.8H487V75.6ZM487,54V43.2H476.2V54Z"/><rect id="_Контур_32" data-name="&lt;Контур&gt;" class="cls-3" x="508.6" y="21.6" width="10.8" height="10.8"/><polygon id="_Контур_33" data-name="&lt;Контур&gt;" class="cls-3" points="519.4 10.8 519.4 21.6 508.6 21.6 476.2 21.6 465.4 21.6 465.4 10.8 476.2 10.8 508.6 10.8 519.4 10.8"/><rect id="_Контур_34" data-name="&lt;Контур&gt;" class="cls-3" x="497.8" y="43.2" width="10.8" height="10.8"/><rect id="_Контур_35" data-name="&lt;Контур&gt;" class="cls-3" x="476.2" width="32.4" height="10.8"/><rect id="_Контур_36" data-name="&lt;Контур&gt;" class="cls-2" x="481.46" y="97.2" width="21.6" height="10.8"/><rect id="_Контур_37" data-name="&lt;Контур&gt;" class="cls-2" x="481.46" y="86.4" width="21.6" height="10.8"/><rect id="_Контур_38" data-name="&lt;Контур&gt;" class="cls-7" x="487" y="64.8" width="10.8" height="10.8"/><rect id="_Контур_39" data-name="&lt;Контур&gt;" class="cls-3" x="465.4" y="270" width="21.6" height="10.8"/><rect id="_Контур_40" data-name="&lt;Контур&gt;" class="cls-2" x="465.4" y="216" width="21.6" height="54"/><rect id="_Контур_41" data-name="&lt;Контур&gt;" class="cls-3" x="476.2" y="43.2" width="10.8" height="10.8"/><rect id="_Контур_42" data-name="&lt;Контур&gt;" class="cls-3" x="465.4" y="21.6" width="10.8" height="10.8"/><rect id="_Контур_43" data-name="&lt;Контур&gt;" class="cls-2" x="454.6" y="183.6" width="10.8" height="10.8"/><rect id="_Контур_44" data-name="&lt;Контур&gt;" class="cls-6" x="454.6" y="108" width="10.8" height="75.6"/><polygon id="_Контур_45" data-name="&lt;Контур&gt;" class="cls-3" points="465.4 32.4 465.4 86.4 454.6 86.4 454.6 32.4 454.6 21.6 465.4 21.6 465.4 32.4"/><rect id="_Контур_46" data-name="&lt;Контур&gt;" class="cls-3" x="443.8" y="32.4" width="10.8" height="54"/></g><g id="_Группа_5" data-name="&lt;Группа&gt;"><rect id="_Контур_47" data-name="&lt;Контур&gt;" class="cls-2" x="376.87" y="183.6" width="10.8" height="10.8"/><rect id="_Контур_48" data-name="&lt;Контур&gt;" class="cls-3" x="376.87" y="97.2" width="10.8" height="86.4"/><polygon id="_Контур_49" data-name="&lt;Контур&gt;" class="cls-3" points="376.87 270 376.87 280.8 344.47 280.8 344.47 270 355.27 270 376.87 270"/><polygon id="_Контур_50" data-name="&lt;Контур&gt;" class="cls-1" points="376.87 194.4 376.87 270 355.27 270 355.27 194.4 355.27 183.6 376.87 183.6 376.87 194.4"/><polygon id="_Контур_51" data-name="&lt;Контур&gt;" class="cls-3" points="376.87 97.2 376.87 183.6 355.27 183.6 333.67 183.6 312.07 183.6 312.07 97.2 322.87 97.2 322.87 108 333.67 108 333.67 118.8 355.27 118.8 355.27 108 366.07 108 366.07 97.2 376.87 97.2"/><rect id="_Контур_52" data-name="&lt;Контур&gt;" class="cls-2" x="366.07" y="43.2" width="10.8" height="10.8"/><rect id="_Контур_53" data-name="&lt;Контур&gt;" class="cls-1" x="366.07" y="21.6" width="10.8" height="21.6"/><polygon id="_Контур_54" data-name="&lt;Контур&gt;" class="cls-7" points="366.07 97.2 366.07 108 355.27 108 333.67 108 322.87 108 322.87 97.2 333.67 97.2 355.27 97.2 366.07 97.2"/><path id="_Составной_контур_3" data-name="&lt;Составной контур&gt;" class="cls-2" d="M366.07,54V86.4h-54V21.6h54V54Zm-10.8,0V43.2h-10.8V54Zm-10.8,21.6V64.8h-10.8V75.6ZM333.67,54V43.2h-10.8V54Z"/><polygon id="_Контур_55" data-name="&lt;Контур&gt;" class="cls-1" points="366.07 10.8 366.07 21.6 312.07 21.6 312.07 10.8 322.87 10.8 344.47 10.8 366.07 10.8"/><rect id="_Контур_56" data-name="&lt;Контур&gt;" class="cls-1" x="333.67" y="183.6" width="21.6" height="10.8"/><rect id="_Контур_57" data-name="&lt;Контур&gt;" class="cls-7" x="333.67" y="108" width="21.6" height="10.8"/><rect id="_Контур_58" data-name="&lt;Контур&gt;" class="cls-2" x="333.67" y="86.4" width="21.6" height="10.8"/><rect id="_Контур_59" data-name="&lt;Контур&gt;" class="cls-3" x="344.47" y="43.2" width="10.8" height="10.8"/><rect id="_Контур_60" data-name="&lt;Контур&gt;" class="cls-7" x="333.67" y="64.8" width="10.8" height="10.8"/><rect id="_Контур_61" data-name="&lt;Контур&gt;" class="cls-1" x="322.87" width="21.6" height="10.8"/><polygon id="_Контур_62" data-name="&lt;Контур&gt;" class="cls-3" points="333.67 270 333.67 280.8 301.27 280.8 301.27 270 312.07 270 333.67 270"/><polygon id="_Контур_63" data-name="&lt;Контур&gt;" class="cls-1" points="333.67 194.4 333.67 270 312.07 270 312.07 194.4 312.07 183.6 333.67 183.6 333.67 194.4"/><rect id="_Контур_64" data-name="&lt;Контур&gt;" class="cls-3" x="322.87" y="43.2" width="10.8" height="10.8"/><rect id="_Контур_65" data-name="&lt;Контур&gt;" class="cls-2" x="301.27" y="183.6" width="10.8" height="10.8"/><rect id="_Контур_66" data-name="&lt;Контур&gt;" class="cls-3" x="301.27" y="97.2" width="10.8" height="86.4"/><rect id="_Контур_67" data-name="&lt;Контур&gt;" class="cls-2" x="301.27" y="43.2" width="10.8" height="10.8"/><rect id="_Контур_68" data-name="&lt;Контур&gt;" class="cls-1" x="301.27" y="21.6" width="10.8" height="21.6"/></g><g id="_Группа_6" data-name="&lt;Группа&gt;"><polygon id="_Контур_69" data-name="&lt;Контур&gt;" class="cls-3" points="239.73 270 239.73 280.8 207.33 280.8 207.33 270 228.93 270 239.73 270"/><rect id="_Контур_70" data-name="&lt;Контур&gt;" class="cls-2" x="228.93" y="183.6" width="10.8" height="10.8"/><rect id="_Контур_71" data-name="&lt;Контур&gt;" class="cls-8" x="228.93" y="97.2" width="10.8" height="86.4"/><rect id="_Контур_72" data-name="&lt;Контур&gt;" class="cls-2" x="228.93" y="43.2" width="10.8" height="10.8"/><rect id="_Контур_73" data-name="&lt;Контур&gt;" class="cls-3" x="228.93" y="21.6" width="10.8" height="21.6"/><polygon id="_Контур_74" data-name="&lt;Контур&gt;" class="cls-9" points="228.93 194.4 228.93 270 207.33 270 207.33 194.4 207.33 183.6 228.93 183.6 228.93 194.4"/><polygon id="_Контур_75" data-name="&lt;Контур&gt;" class="cls-3" points="228.93 97.2 228.93 183.6 207.33 183.6 185.73 183.6 164.13 183.6 164.13 97.2 185.73 97.2 185.73 108 207.33 108 207.33 97.2 228.93 97.2"/><path id="_Составной_контур_4" data-name="&lt;Составной контур&gt;" class="cls-2" d="M228.93,54V86.4h-54V21.6h54V54Zm-10.8,21.6V64.8h-32.4V75.6Zm0-21.6V43.2h-10.8V54Zm-21.6,0V43.2h-10.8V54Z"/><polygon id="_Контур_76" data-name="&lt;Контур&gt;" class="cls-3" points="228.93 10.8 228.93 21.6 174.93 21.6 174.93 10.8 185.73 10.8 218.13 10.8 228.93 10.8"/><rect id="_Контур_77" data-name="&lt;Контур&gt;" class="cls-8" x="185.73" y="64.8" width="32.4" height="10.8"/><rect id="_Контур_78" data-name="&lt;Контур&gt;" class="cls-3" x="207.33" y="43.2" width="10.8" height="10.8"/><rect id="_Контур_79" data-name="&lt;Контур&gt;" class="cls-3" x="185.73" width="32.4" height="10.8"/><rect id="_Контур_80" data-name="&lt;Контур&gt;" class="cls-9" x="185.73" y="183.6" width="21.6" height="10.8"/><rect id="_Контур_81" data-name="&lt;Контур&gt;" class="cls-8" x="185.73" y="97.2" width="21.6" height="10.8"/><rect id="_Контур_82" data-name="&lt;Контур&gt;" class="cls-2" x="185.73" y="86.4" width="21.6" height="10.8"/><polygon id="_Контур_83" data-name="&lt;Контур&gt;" class="cls-3" points="196.53 270 196.53 280.8 164.13 280.8 164.13 270 185.73 270 196.53 270"/><rect id="_Контур_84" data-name="&lt;Контур&gt;" class="cls-3" x="185.73" y="43.2" width="10.8" height="10.8"/><polygon id="_Контур_85" data-name="&lt;Контур&gt;" class="cls-9" points="185.73 194.4 185.73 270 164.13 270 164.13 194.4 164.13 183.6 185.73 183.6 185.73 194.4"/><rect id="_Контур_86" data-name="&lt;Контур&gt;" class="cls-2" x="164.13" y="43.2" width="10.8" height="10.8"/><rect id="_Контур_87" data-name="&lt;Контур&gt;" class="cls-3" x="164.13" y="21.6" width="10.8" height="21.6"/><rect id="_Контур_88" data-name="&lt;Контур&gt;" class="cls-2" x="153.33" y="183.6" width="10.8" height="10.8"/><rect id="_Контур_89" data-name="&lt;Контур&gt;" class="cls-8" x="153.33" y="97.2" width="10.8" height="86.4"/></g><g id="_Группа_7" data-name="&lt;Группа&gt;"><rect id="_Контур_90" data-name="&lt;Контур&gt;" class="cls-6" x="86.4" y="32.4" width="10.8" height="54"/><rect id="_Контур_91" data-name="&lt;Контур&gt;" class="cls-2" x="75.6" y="183.6" width="10.8" height="10.8"/><rect id="_Контур_92" data-name="&lt;Контур&gt;" class="cls-2" x="75.6" y="129.6" width="10.8" height="54"/><rect id="_Контур_93" data-name="&lt;Контур&gt;" class="cls-3" x="75.6" y="108" width="10.8" height="21.6"/><polygon id="_Контур_94" data-name="&lt;Контур&gt;" class="cls-6" points="86.4 86.4 86.4 97.2 75.6 97.2 64.8 97.2 64.8 86.4 75.6 86.4 86.4 86.4"/><polygon id="_Контур_95" data-name="&lt;Контур&gt;" class="cls-6" points="86.4 32.4 86.4 86.4 75.6 86.4 75.6 32.4 75.6 21.6 86.4 21.6 86.4 32.4"/><rect id="_Контур_96" data-name="&lt;Контур&gt;" class="cls-3" x="54" y="270" width="21.6" height="10.8"/><rect id="_Контур_97" data-name="&lt;Контур&gt;" class="cls-2" x="54" y="205.2" width="21.6" height="64.8"/><polygon id="_Контур_98" data-name="&lt;Контур&gt;" class="cls-3" points="75.6 194.4 75.6 205.2 54 205.2 43.2 205.2 21.6 205.2 21.6 194.4 21.6 183.6 75.6 183.6 75.6 194.4"/><polygon id="_Контур_99" data-name="&lt;Контур&gt;" class="cls-3" points="75.6 108 75.6 129.6 75.6 183.6 21.6 183.6 21.6 129.6 21.6 108 21.6 97.2 37.66 97.2 37.66 108 59.26 108 59.26 97.2 64.8 97.2 75.6 97.2 75.6 108"/><path id="_Составной_контур_5" data-name="&lt;Составной контур&gt;" class="cls-2" d="M75.6,32.4v54h-54v-54H32.4V21.6H64.8V32.4ZM64.8,54V43.2H54V54ZM54,75.6V64.8H43.2V75.6ZM43.2,54V43.2H32.4V54Z"/><rect id="_Контур_100" data-name="&lt;Контур&gt;" class="cls-6" x="64.8" y="21.6" width="10.8" height="10.8"/><polygon id="_Контур_101" data-name="&lt;Контур&gt;" class="cls-6" points="75.6 10.8 75.6 21.6 64.8 21.6 32.4 21.6 21.6 21.6 21.6 10.8 32.4 10.8 64.8 10.8 75.6 10.8"/><rect id="_Контур_102" data-name="&lt;Контур&gt;" class="cls-6" x="59.26" y="86.4" width="5.54" height="10.8"/><rect id="_Контур_103" data-name="&lt;Контур&gt;" class="cls-3" x="54" y="43.2" width="10.8" height="10.8"/><rect id="_Контур_104" data-name="&lt;Контур&gt;" class="cls-6" x="32.4" width="32.4" height="10.8"/><rect id="_Контур_105" data-name="&lt;Контур&gt;" class="cls-2" x="37.66" y="97.2" width="21.6" height="10.8"/><rect id="_Контур_106" data-name="&lt;Контур&gt;" class="cls-2" x="37.66" y="86.4" width="21.6" height="10.8"/><rect id="_Контур_107" data-name="&lt;Контур&gt;" class="cls-7" x="43.2" y="64.8" width="10.8" height="10.8"/><rect id="_Контур_108" data-name="&lt;Контур&gt;" class="cls-3" x="21.6" y="270" width="21.6" height="10.8"/><rect id="_Контур_109" data-name="&lt;Контур&gt;" class="cls-2" x="21.6" y="205.2" width="21.6" height="64.8"/><rect id="_Контур_110" data-name="&lt;Контур&gt;" class="cls-3" x="32.4" y="43.2" width="10.8" height="10.8"/><polygon id="_Контур_111" data-name="&lt;Контур&gt;" class="cls-6" points="37.66 86.4 37.66 97.2 21.6 97.2 10.8 97.2 10.8 86.4 21.6 86.4 37.66 86.4"/><rect id="_Контур_112" data-name="&lt;Контур&gt;" class="cls-6" x="21.6" y="21.6" width="10.8" height="10.8"/><rect id="_Контур_113" data-name="&lt;Контур&gt;" class="cls-2" x="10.8" y="183.6" width="10.8" height="10.8"/><rect id="_Контур_114" data-name="&lt;Контур&gt;" class="cls-3" x="10.8" y="108" width="10.8" height="21.6"/><rect id="_Контур_115" data-name="&lt;Контур&gt;" class="cls-2" x="10.8" y="129.6" width="10.8" height="54"/><polygon id="_Контур_116" data-name="&lt;Контур&gt;" class="cls-6" points="21.6 32.4 21.6 86.4 10.8 86.4 10.8 32.4 10.8 21.6 21.6 21.6 21.6 32.4"/><rect id="_Контур_117" data-name="&lt;Контур&gt;" class="cls-6" y="32.4" width="10.8" height="54"/></g><g id="_Группа_8" data-name="&lt;Группа&gt;"><g id="_Группа_9" data-name="&lt;Группа&gt;"><polygon id="_Контур_118" data-name="&lt;Контур&gt;" class="cls-3" points="375 583.2 375 594 342.6 594 342.6 583.2 364.2 583.2 375 583.2"/><rect id="_Контур_119" data-name="&lt;Контур&gt;" class="cls-2" x="364.2" y="496.8" width="10.8" height="10.8"/><rect id="_Контур_120" data-name="&lt;Контур&gt;" class="cls-3" x="364.2" y="410.4" width="10.8" height="86.4"/><rect id="_Контур_121" data-name="&lt;Контур&gt;" class="cls-2" x="364.2" y="356.4" width="10.8" height="10.8"/><rect id="_Контур_122" data-name="&lt;Контур&gt;" class="cls-1" x="364.2" y="334.8" width="10.8" height="21.6"/><polygon id="_Контур_123" data-name="&lt;Контур&gt;" class="cls-4" points="364.2 507.6 364.2 583.2 342.6 583.2 342.6 507.6 342.6 496.8 364.2 496.8 364.2 507.6"/><polygon id="_Контур_124" data-name="&lt;Контур&gt;" class="cls-3" points="364.2 410.4 364.2 496.8 342.6 496.8 321 496.8 299.4 496.8 299.4 410.4 310.2 410.4 310.2 421.2 321 421.2 321 453.6 331.8 453.6 342.6 453.6 342.6 421.2 353.4 421.2 353.4 410.4 364.2 410.4"/><path id="_Составной_контур_6" data-name="&lt;Составной контур&gt;" class="cls-2" d="M364.2,367.2v32.4h-54V334.8H321v10.8h10.8V334.8h32.4v32.4Zm-10.8,21.6V378H321v10.8Zm0-21.6V356.4H342.6v10.8Zm-21.6,0V356.4H321v10.8Z"/><polygon id="_Контур_125" data-name="&lt;Контур&gt;" class="cls-1" points="364.2 324 364.2 334.8 331.8 334.8 321 334.8 310.2 334.8 310.2 324 321 324 353.4 324 364.2 324"/><rect id="_Контур_126" data-name="&lt;Контур&gt;" class="cls-8" x="342.6" y="410.4" width="10.8" height="10.8"/><rect id="_Контур_127" data-name="&lt;Контур&gt;" class="cls-8" x="342.6" y="399.6" width="10.8" height="10.8"/><rect id="_Контур_128" data-name="&lt;Контур&gt;" class="cls-8" x="321" y="378" width="32.4" height="10.8"/><rect id="_Контур_129" data-name="&lt;Контур&gt;" class="cls-3" x="342.6" y="356.4" width="10.8" height="10.8"/><rect id="_Контур_130" data-name="&lt;Контур&gt;" class="cls-1" x="321" y="313.2" width="32.4" height="10.8"/><rect id="_Контур_131" data-name="&lt;Контур&gt;" class="cls-4" x="321" y="496.8" width="21.6" height="10.8"/><rect id="_Контур_132" data-name="&lt;Контур&gt;" class="cls-5" x="331.8" y="421.2" width="10.8" height="32.4"/><polygon id="_Контур_133" data-name="&lt;Контур&gt;" class="cls-5" points="342.6 410.4 342.6 421.2 331.8 421.2 321 421.2 321 410.4 342.6 410.4"/><rect id="_Контур_134" data-name="&lt;Контур&gt;" class="cls-2" x="321" y="399.6" width="21.6" height="10.8"/><polygon id="_Контур_135" data-name="&lt;Контур&gt;" class="cls-3" points="331.8 583.2 331.8 594 299.4 594 299.4 583.2 321 583.2 331.8 583.2"/><rect id="_Контур_136" data-name="&lt;Контур&gt;" class="cls-8" x="321" y="421.2" width="10.8" height="32.4"/><rect id="_Контур_137" data-name="&lt;Контур&gt;" class="cls-3" x="321" y="356.4" width="10.8" height="10.8"/><rect id="_Контур_138" data-name="&lt;Контур&gt;" class="cls-1" x="321" y="334.8" width="10.8" height="10.8"/><polygon id="_Контур_139" data-name="&lt;Контур&gt;" class="cls-4" points="321 507.6 321 583.2 299.4 583.2 299.4 507.6 299.4 496.8 321 496.8 321 507.6"/><rect id="_Контур_140" data-name="&lt;Контур&gt;" class="cls-8" x="310.2" y="410.4" width="10.8" height="10.8"/><rect id="_Контур_141" data-name="&lt;Контур&gt;" class="cls-8" x="310.2" y="399.6" width="10.8" height="10.8"/><rect id="_Контур_142" data-name="&lt;Контур&gt;" class="cls-2" x="299.4" y="356.4" width="10.8" height="10.8"/><rect id="_Контур_143" data-name="&lt;Контур&gt;" class="cls-1" x="299.4" y="334.8" width="10.8" height="21.6"/><rect id="_Контур_144" data-name="&lt;Контур&gt;" class="cls-2" x="288.6" y="496.8" width="10.8" height="10.8"/><rect id="_Контур_145" data-name="&lt;Контур&gt;" class="cls-3" x="288.6" y="410.4" width="10.8" height="86.4"/></g></g><g id="_Группа_10" data-name="&lt;Группа&gt;"><g id="_Группа_11" data-name="&lt;Группа&gt;"><polygon id="_Контур_146" data-name="&lt;Контур&gt;" class="cls-3" points="91.8 583.2 91.8 594 59.4 594 59.4 583.2 81 583.2 91.8 583.2"/><rect id="_Контур_147" data-name="&lt;Контур&gt;" class="cls-2" x="81" y="496.8" width="10.8" height="10.8"/><rect id="_Контур_148" data-name="&lt;Контур&gt;" class="cls-1" x="81" y="410.4" width="10.8" height="86.4"/><rect id="_Контур_149" data-name="&lt;Контур&gt;" class="cls-2" x="81" y="356.4" width="10.8" height="10.8"/><rect id="_Контур_150" data-name="&lt;Контур&gt;" class="cls-1" x="81" y="334.8" width="10.8" height="21.6"/><polygon id="_Контур_151" data-name="&lt;Контур&gt;" class="cls-9" points="81 507.6 81 583.2 59.4 583.2 59.4 507.6 59.4 496.8 81 496.8 81 507.6"/><polygon id="_Контур_152" data-name="&lt;Контур&gt;" class="cls-1" points="81 410.4 81 496.8 59.4 496.8 37.8 496.8 16.2 496.8 16.2 410.4 27 410.4 27 421.2 37.8 421.2 37.8 453.6 48.6 453.6 59.4 453.6 59.4 421.2 70.2 421.2 70.2 410.4 81 410.4"/><path id="_Составной_контур_7" data-name="&lt;Составной контур&gt;" class="cls-2" d="M81,367.2v32.4H27V334.8H81v32.4ZM70.2,388.8V378H48.6v10.8Zm0-21.6V356.4H59.4v10.8Zm-21.6,0V356.4H37.8v10.8Z"/><rect id="_Контур_153" data-name="&lt;Контур&gt;" class="cls-1" x="70.2" y="324" width="10.8" height="10.8"/><rect id="_Контур_154" data-name="&lt;Контур&gt;" class="cls-8" x="59.4" y="410.4" width="10.8" height="10.8"/><rect id="_Контур_155" data-name="&lt;Контур&gt;" class="cls-8" x="59.4" y="399.6" width="10.8" height="10.8"/><rect id="_Контур_156" data-name="&lt;Контур&gt;" class="cls-7" x="48.6" y="378" width="21.6" height="10.8"/><rect id="_Контур_157" data-name="&lt;Контур&gt;" class="cls-3" x="59.4" y="356.4" width="10.8" height="10.8"/><rect id="_Контур_158" data-name="&lt;Контур&gt;" class="cls-2" x="37.8" y="324" width="32.4" height="10.8"/><rect id="_Контур_159" data-name="&lt;Контур&gt;" class="cls-9" x="37.8" y="496.8" width="21.6" height="10.8"/><rect id="_Контур_160" data-name="&lt;Контур&gt;" class="cls-9" x="48.6" y="421.2" width="10.8" height="32.4"/><polygon id="_Контур_161" data-name="&lt;Контур&gt;" class="cls-9" points="59.4 410.4 59.4 421.2 48.6 421.2 37.8 421.2 37.8 410.4 59.4 410.4"/><rect id="_Контур_162" data-name="&lt;Контур&gt;" class="cls-2" x="37.8" y="399.6" width="21.6" height="10.8"/><polygon id="_Контур_163" data-name="&lt;Контур&gt;" class="cls-3" points="48.6 583.2 48.6 594 16.2 594 16.2 583.2 37.8 583.2 48.6 583.2"/><rect id="_Контур_164" data-name="&lt;Контур&gt;" class="cls-8" x="37.8" y="421.2" width="10.8" height="32.4"/><rect id="_Контур_165" data-name="&lt;Контур&gt;" class="cls-3" x="37.8" y="356.4" width="10.8" height="10.8"/><polygon id="_Контур_166" data-name="&lt;Контур&gt;" class="cls-9" points="37.8 507.6 37.8 583.2 16.2 583.2 16.2 507.6 16.2 496.8 37.8 496.8 37.8 507.6"/><rect id="_Контур_167" data-name="&lt;Контур&gt;" class="cls-8" x="27" y="410.4" width="10.8" height="10.8"/><rect id="_Контур_168" data-name="&lt;Контур&gt;" class="cls-8" x="27" y="399.6" width="10.8" height="10.8"/><rect id="_Контур_169" data-name="&lt;Контур&gt;" class="cls-1" x="27" y="324" width="10.8" height="10.8"/><rect id="_Контур_170" data-name="&lt;Контур&gt;" class="cls-2" x="16.2" y="356.4" width="10.8" height="10.8"/><rect id="_Контур_171" data-name="&lt;Контур&gt;" class="cls-1" x="16.2" y="334.8" width="10.8" height="21.6"/><rect id="_Контур_172" data-name="&lt;Контур&gt;" class="cls-2" x="5.4" y="496.8" width="10.8" height="10.8"/><rect id="_Контур_173" data-name="&lt;Контур&gt;" class="cls-1" x="5.4" y="410.4" width="10.8" height="86.4"/></g></g><g id="_Группа_12" data-name="&lt;Группа&gt;"><g id="_Группа_13" data-name="&lt;Группа&gt;"><g id="_Группа_14" data-name="&lt;Группа&gt;"><rect id="_Контур_174" data-name="&lt;Контур&gt;" class="cls-2" x="527.4" y="496.8" width="10.8" height="10.8"/></g><g id="_Группа_15" data-name="&lt;Группа&gt;"><rect id="_Контур_175" data-name="&lt;Контур&gt;" class="cls-3" x="527.4" y="410.4" width="10.8" height="86.4"/></g><g id="_Группа_16" data-name="&lt;Группа&gt;"><polygon id="_Контур_176" data-name="&lt;Контур&gt;" class="cls-3" points="527.4 583.2 527.4 594 495 594 495 583.2 505.8 583.2 527.4 583.2"/></g><g id="_Группа_17" data-name="&lt;Группа&gt;"><polygon id="_Контур_177" data-name="&lt;Контур&gt;" class="cls-4" points="527.4 507.6 527.4 583.2 505.8 583.2 505.8 507.6 505.8 496.8 527.4 496.8 527.4 507.6"/></g><g id="_Группа_18" data-name="&lt;Группа&gt;"><polygon id="_Контур_178" data-name="&lt;Контур&gt;" class="cls-3" points="527.4 410.4 527.4 496.8 505.8 496.8 484.2 496.8 462.6 496.8 462.6 432 462.6 410.4 473.4 410.4 473.4 421.2 484.2 421.2 484.2 432 484.2 453.6 495 453.6 505.8 453.6 505.8 432 505.8 421.2 516.6 421.2 516.6 410.4 527.4 410.4"/></g><g id="_Группа_19" data-name="&lt;Группа&gt;"><rect id="_Контур_179" data-name="&lt;Контур&gt;" class="cls-2" x="516.6" y="356.4" width="10.8" height="10.8"/></g><g id="_Группа_20" data-name="&lt;Группа&gt;"><rect id="_Контур_180" data-name="&lt;Контур&gt;" class="cls-3" x="516.6" y="334.8" width="10.8" height="21.6"/></g><g id="_Группа_21" data-name="&lt;Группа&gt;"><polygon id="_Контур_181" data-name="&lt;Контур&gt;" class="cls-8" points="516.6 410.4 516.6 421.2 505.8 421.2 484.2 421.2 473.4 421.2 473.4 410.4 484.2 410.4 505.8 410.4 516.6 410.4"/></g><g id="_Группа_22" data-name="&lt;Группа&gt;"><path id="_Составной_контур_8" data-name="&lt;Составной контур&gt;" class="cls-2" d="M516.6,367.2v32.4h-54V334.8h54v32.4Zm-10.8,0V356.4H495v10.8ZM495,388.8V378H484.2v10.8Zm-10.8-21.6V356.4H473.4v10.8Z"/></g><g id="_Группа_23" data-name="&lt;Группа&gt;"><polygon id="_Контур_182" data-name="&lt;Контур&gt;" class="cls-3" points="516.6 324 516.6 334.8 462.6 334.8 462.6 324 473.4 324 495 324 516.6 324"/></g><g id="_Группа_24" data-name="&lt;Группа&gt;"><rect id="_Контур_183" data-name="&lt;Контур&gt;" class="cls-4" x="484.2" y="496.8" width="21.6" height="10.8"/></g><g id="_Группа_25" data-name="&lt;Группа&gt;"><rect id="_Контур_184" data-name="&lt;Контур&gt;" class="cls-8" x="495" y="432" width="10.8" height="21.6"/></g><g id="_Группа_26" data-name="&lt;Группа&gt;"><polygon id="_Контур_185" data-name="&lt;Контур&gt;" class="cls-10" points="505.8 421.2 505.8 432 495 432 484.2 432 484.2 421.2 505.8 421.2"/></g><g id="_Группа_27" data-name="&lt;Группа&gt;"><rect id="_Контур_186" data-name="&lt;Контур&gt;" class="cls-2" x="484.2" y="399.6" width="21.6" height="10.8"/></g><g id="_Группа_28" data-name="&lt;Группа&gt;"><rect id="_Контур_187" data-name="&lt;Контур&gt;" class="cls-3" x="495" y="356.4" width="10.8" height="10.8"/></g><g id="_Группа_29" data-name="&lt;Группа&gt;"><rect id="_Контур_188" data-name="&lt;Контур&gt;" class="cls-10" x="484.2" y="432" width="10.8" height="21.6"/></g><g id="_Группа_30" data-name="&lt;Группа&gt;"><rect id="_Контур_189" data-name="&lt;Контур&gt;" class="cls-7" x="484.2" y="378" width="10.8" height="10.8"/></g><g id="_Группа_31" data-name="&lt;Группа&gt;"><rect id="_Контур_190" data-name="&lt;Контур&gt;" class="cls-3" x="473.4" y="313.2" width="21.6" height="10.8"/></g><g id="_Группа_32" data-name="&lt;Группа&gt;"><polygon id="_Контур_191" data-name="&lt;Контур&gt;" class="cls-3" points="484.2 583.2 484.2 594 451.8 594 451.8 583.2 462.6 583.2 484.2 583.2"/></g><g id="_Группа_33" data-name="&lt;Группа&gt;"><polygon id="_Контур_192" data-name="&lt;Контур&gt;" class="cls-4" points="484.2 507.6 484.2 583.2 462.6 583.2 462.6 496.8 484.2 496.8 484.2 507.6"/></g><g id="_Группа_34" data-name="&lt;Группа&gt;"><rect id="_Контур_193" data-name="&lt;Контур&gt;" class="cls-3" x="473.4" y="356.4" width="10.8" height="10.8"/></g><g id="_Группа_35" data-name="&lt;Группа&gt;"><polygon id="_Контур_194" data-name="&lt;Контур&gt;" class="cls-3" points="462.6 410.4 462.6 432 451.8 432 451.8 421.2 451.8 410.4 462.6 410.4"/></g><g id="_Группа_36" data-name="&lt;Группа&gt;"><rect id="_Контур_195" data-name="&lt;Контур&gt;" class="cls-2" x="451.8" y="356.4" width="10.8" height="10.8"/></g><g id="_Группа_37" data-name="&lt;Группа&gt;"><rect id="_Контур_196" data-name="&lt;Контур&gt;" class="cls-3" x="451.8" y="334.8" width="10.8" height="21.6"/></g><g id="_Группа_38" data-name="&lt;Группа&gt;"><polygon id="_Контур_197" data-name="&lt;Контур&gt;" class="cls-3" points="451.8 496.8 451.8 540 408.6 540 408.6 496.8 430.2 496.8 441 496.8 451.8 496.8"/></g><g id="_Группа_39" data-name="&lt;Группа&gt;"><polygon id="_Контур_198" data-name="&lt;Контур&gt;" class="cls-3" points="451.8 442.8 451.8 453.6 441 453.6 430.2 453.6 430.2 432 441 432 441 442.8 451.8 442.8"/></g><g id="_Группа_40" data-name="&lt;Группа&gt;"><rect id="_Контур_199" data-name="&lt;Контур&gt;" class="cls-3" x="441" y="432" width="10.8" height="10.8"/></g><g id="_Группа_41" data-name="&lt;Группа&gt;"><rect id="_Контур_200" data-name="&lt;Контур&gt;" class="cls-3" x="441" y="421.2" width="10.8" height="10.8"/></g><g id="_Группа_42" data-name="&lt;Группа&gt;"><rect id="_Контур_201" data-name="&lt;Контур&gt;" class="cls-2" x="430.2" y="486" width="10.8" height="10.8"/></g><g id="_Группа_43" data-name="&lt;Группа&gt;"><rect id="_Контур_202" data-name="&lt;Контур&gt;" class="cls-3" x="430.2" y="453.6" width="10.8" height="32.4"/></g></g></g></g></g></g></svg>