<?xml version="1.0" encoding="iso-8859-1"?>
<!-- Generator: Adobe Illustrator 16.0.0, SVG Export Plug-In . SVG Version: 6.00 Build 0)  -->
<!DOCTYPE svg PUBLIC "-//W3C//DTD SVG 1.1//EN" "http://www.w3.org/Graphics/SVG/1.1/DTD/svg11.dtd">
<svg xmlns="http://www.w3.org/2000/svg" xmlns:xlink="http://www.w3.org/1999/xlink" version="1.1" id="Capa_1" x="0px" y="0px" width="512px" height="512px" viewBox="0 0 43.375 43.376" style="enable-background:new 0 0 43.375 43.376;" xml:space="preserve">
<g>
	<path d="M36.522,0.221c-0.695-0.348-1.533-0.282-2.16,0.178L19.438,11.322H9.972c-1.118,0-2.175,0.42-2.97,1.177   c-0.828,0.787-1.285,1.842-1.285,2.969v12.438c0,1.127,0.457,2.182,1.28,2.967c0.8,0.76,1.855,1.18,2.975,1.18h9.468l14.921,10.924   c0.36,0.266,0.791,0.4,1.225,0.4c0.32,0,0.643-0.076,0.938-0.228c0.694-0.353,1.135-1.065,1.135-1.849V2.07   C37.657,1.288,37.217,0.575,36.522,0.221z M33.513,37.216l-12.172-8.911c-0.354-0.261-0.783-0.399-1.224-0.399H9.863v-6.218   l0.107-6.219v-0.001h10.147c0.44,0,0.869-0.138,1.224-0.401l12.172-8.908V37.216z" fill="#FFFFFF"/>
</g>
<g>
</g>
<g>
</g>
<g>
</g>
<g>
</g>
<g>
</g>
<g>
</g>
<g>
</g>
<g>
</g>
<g>
</g>
<g>
</g>
<g>
</g>
<g>
</g>
<g>
</g>
<g>
</g>
<g>
</g>
</svg>
